<svg width="209" height="433" viewBox="0 0 209 433" fill="none" xmlns="http://www.w3.org/2000/svg">
<path d="M4.99997 359.5C15.8333 368.667 39 387.1 45 387.5C25.5 353.667 -9.80003 257.7 4.99997 144.5C8.83332 114 26.6 42.7 67 1.5C111 44 200.6 148.4 207 226C212.333 264.833 199.6 360.2 106 431C125.5 411 167.5 356 179.5 296C186.667 274.833 190.2 217 147 155L67.5 61.5V432H59C40.1666 415.5 2.99995 377.9 4.99997 359.5Z" fill="#2A632C" stroke="#2A632C"/>
<circle cx="111" cy="184" r="28" fill="#FAB805"/>
<circle cx="111" cy="251" r="28" fill="#FAB805"/>
<circle cx="111" cy="319" r="28" fill="#FAB805"/>
</svg>
